<svg width="27" height="32" viewBox="0 0 27 32" fill="none" xmlns="http://www.w3.org/2000/svg">
<path d="M13.3904 4.49335L6.21691 11.6669C4.7983 13.0856 3.83224 14.8932 3.4409 16.861C3.04956 18.8288 3.25052 20.8684 4.01835 22.722C4.78619 24.5756 6.08642 26.1599 7.75463 27.2745C9.42285 28.3891 11.3841 28.9841 13.3904 28.9841C15.3968 28.9841 17.358 28.3891 19.0263 27.2745C20.6945 26.1599 21.9947 24.5756 22.7625 22.722C23.5304 20.8684 23.7313 18.8288 23.34 16.861C22.9486 14.8932 21.9826 13.0856 20.564 11.6669L13.3904 4.49335ZM13.3904 0.39502L22.6131 9.61772C24.4372 11.4418 25.6794 13.7658 26.1826 16.2958C26.6859 18.8259 26.4276 21.4483 25.4404 23.8316C24.4532 26.2148 22.7815 28.2518 20.6366 29.685C18.4917 31.1181 15.9701 31.8831 13.3904 31.8831C10.8108 31.8831 8.28915 31.1181 6.14428 29.685C3.99941 28.2518 2.32768 26.2148 1.3405 23.8316C0.353318 21.4483 0.0950181 18.8259 0.598264 16.2958C1.10151 13.7658 2.3437 11.4418 4.16775 9.61772L13.3904 0.39502Z" fill="white"/>
</svg>
