<svg width="31" height="31" viewBox="0 0 31 31" fill="none" xmlns="http://www.w3.org/2000/svg">
<path d="M13.3126 22.7911H3.83341V19.8745H13.3126C14.2441 19.8748 15.1577 20.13 15.9546 20.6125C16.7514 21.095 17.4009 21.7864 17.8329 22.6117C18.2649 23.437 18.4628 24.3647 18.4051 25.2944C18.3475 26.2242 18.0366 27.1204 17.506 27.886C16.9754 28.6516 16.2454 29.2575 15.3951 29.6378C14.5448 30.0182 13.6066 30.1587 12.6822 30.044C11.7578 29.9292 10.8824 29.5637 10.1508 28.987C9.41929 28.4104 8.85952 27.6445 8.53216 26.7724L11.2636 25.7472C11.4039 26.121 11.6438 26.4492 11.9572 26.6964C12.2707 26.9436 12.6459 27.1003 13.0421 27.1495C13.4383 27.1987 13.8403 27.1385 14.2048 26.9755C14.5692 26.8125 14.8821 26.5529 15.1095 26.2248C15.3369 25.8967 15.4702 25.5126 15.495 25.1142C15.5197 24.7157 15.4349 24.3181 15.2498 23.9644C15.0647 23.6106 14.7863 23.3143 14.4448 23.1075C14.1034 22.9007 13.7118 22.7913 13.3126 22.7911ZM5.29175 14.0411H24.9792C25.9108 14.0415 26.8244 14.2967 27.6212 14.7792C28.418 15.2617 29.0676 15.953 29.4996 16.7783C29.9316 17.6036 30.1294 18.5314 30.0718 19.4611C30.0142 20.3908 29.7032 21.2871 29.1726 22.0527C28.642 22.8183 27.912 23.4241 27.0617 23.8045C26.2114 24.1849 25.2733 24.3253 24.3488 24.2106C23.4244 24.0959 22.549 23.7304 21.8175 23.1537C21.086 22.577 20.5262 21.8111 20.1988 20.9391L22.9303 19.9139C23.0705 20.2876 23.3104 20.6159 23.6239 20.8631C23.9374 21.1103 24.3126 21.2669 24.7087 21.3161C25.1049 21.3653 25.507 21.3052 25.8714 21.1422C26.2359 20.9792 26.5487 20.7196 26.7762 20.3915C27.0036 20.0634 27.1369 19.6793 27.1616 19.2808C27.1864 18.8824 27.1016 18.4847 26.9165 18.131C26.7314 17.7773 26.453 17.481 26.1115 17.2742C25.77 17.0674 25.3785 16.958 24.9792 16.9578H5.29175C4.13143 16.9578 3.01863 16.4969 2.19816 15.6764C1.37768 14.8559 0.916748 13.7431 0.916748 12.5828C0.916748 11.4225 1.37768 10.3097 2.19816 9.48922C3.01863 8.66875 4.13143 8.20781 5.29175 8.20781H17.6876C18.0868 8.20764 18.4784 8.09823 18.8198 7.89142C19.1613 7.68462 19.4397 7.38831 19.6248 7.03459C19.8099 6.68088 19.8947 6.28326 19.87 5.8848C19.8452 5.48635 19.7119 5.10226 19.4845 4.77415C19.2571 4.44604 18.9442 4.18643 18.5798 4.02343C18.2153 3.86044 17.8133 3.80029 17.4171 3.84949C17.0209 3.89869 16.6457 4.05537 16.3322 4.30255C16.0188 4.54974 15.7789 4.878 15.6386 5.25177L12.9072 4.22802C13.3279 3.10919 14.1278 2.17343 15.1675 1.58378C16.2072 0.994136 17.4209 0.78798 18.597 1.00124C19.7732 1.21449 20.8372 1.83365 21.6037 2.75081C22.3702 3.66797 22.7907 4.82501 22.7917 6.02031C22.7917 7.37402 22.254 8.67228 21.2968 9.6295C20.3396 10.5867 19.0413 11.1245 17.6876 11.1245H5.29175C4.90497 11.1245 4.53404 11.2781 4.26055 11.5516C3.98706 11.8251 3.83341 12.196 3.83341 12.5828C3.83341 12.9696 3.98706 13.3405 4.26055 13.614C4.53404 13.8875 4.90497 14.0411 5.29175 14.0411Z" fill="white"/>
</svg>
